<svg xmlns="http://www.w3.org/2000/svg" viewBox="0 0 206.29 204.93"><defs><style>.cls-1{fill:#fff;}.cls-2{fill:#d6d041;}</style></defs><title>logo_white</title><g id="レイヤー_2" data-name="レイヤー 2"><g id="レイヤー_1-2" data-name="レイヤー 1"><path class="cls-1" d="M70.69,5.26A91.7,91.7,0,0,1,109.55.39a100.15,100.15,0,0,1,38.21,9A99.55,99.55,0,0,1,179.7,32.81a102.49,102.49,0,0,1,16.75,112.67A104.05,104.05,0,0,1,97.32,204.8,100.78,100.78,0,0,1,57.7,194.72a104.81,104.81,0,0,1-32.47-24.87,102.34,102.34,0,0,1-11.87-16.73A105.41,105.41,0,0,1,5.09,134.4,103.92,103.92,0,0,1,.33,94.16a102.41,102.41,0,0,1,35.85-69.8A101.17,101.17,0,0,1,70.69,5.26Zm.73,2.1a97.27,97.27,0,0,0-54.63,50.8A96.58,96.58,0,0,0,8.16,94.64,95.28,95.28,0,0,0,14,131.32a96.88,96.88,0,0,0,19,31.59,94.73,94.73,0,0,0,29.41,22,107.81,107.81,0,0,0,17.28,6.47,93.39,93.39,0,0,0,18.21,3.14,95,95,0,0,0,68.87-22.92A96.16,96.16,0,0,0,195,68.73,97.1,97.1,0,0,0,176.34,35.8a100.44,100.44,0,0,0-13.82-13.18,102.32,102.32,0,0,0-16.14-10.34,99.34,99.34,0,0,0-36.9-10.64A109.47,109.47,0,0,0,71.42,7.36Z"/><path class="cls-2" d="M91.34,56C76.41,50.63,72.78,32.37,78.5,18.44,84,5.06,109.42-4.89,126.12,12.89c14.09,15,3.24,36.72-7.6,50.47C109.28,75.09,98.87,86,94.9,100.78c-5.22,19.5-5.19,40.39,11.67,53.56.75.59,2.7,2.66,2,2-17.2-16.09-18.42-46.75-7.45-67.11,8.4-15.59,23.39-26.81,29.83-43.58,5.91-15.38,2.39-36.13-15.45-41.37C101,0,81.65,5.61,76.06,20.28c-5.39,14.16,0,31.81,14.88,37.2.91.33,1.3-1.12.4-1.45Z"/><path class="cls-1" d="M91.28,56.21a22.45,22.45,0,0,1-8-4.43,24,24,0,0,1-5.72-7.38,30.43,30.43,0,0,1-2.87-9,34.55,34.55,0,0,1-.2-9.49h0a36.53,36.53,0,0,1,1.83-7.06,21.15,21.15,0,0,1,1.58-3.43c.62-1.12,1.41-2.1,2.11-3.15A27.67,27.67,0,0,1,85.3,7.07a33.51,33.51,0,0,1,6.42-3.78l0-.09c.52-.15,1.06-.25,1.57-.41a14.78,14.78,0,0,0,1.5-.59,13.76,13.76,0,0,1,1.51-.63c.52-.16,1.05-.26,1.58-.37a32.8,32.8,0,0,1,6.48-.76A31.08,31.08,0,0,1,117.2,2.88a41.13,41.13,0,0,1,5.75,3.22,37,37,0,0,1,5,4.23,29.62,29.62,0,0,1,4.16,5.23,27.11,27.11,0,0,1,2.77,6.19A29.89,29.89,0,0,1,135.65,35a43.18,43.18,0,0,1-3.88,12.13c-3.54,7.59-8.74,14.1-13.88,20.25-2.57,3.07-5.1,6.15-7.33,9.41-1.09,1.65-2.07,3.37-3.06,5.06s-2,3.36-2.87,5a50.78,50.78,0,0,0-4.21,10.46c-.51,1.79-.92,3.5-1.33,5.35l-1.23,5.58a109.92,109.92,0,0,0-2,11.14,56.2,56.2,0,0,0-.2,11.2,38.88,38.88,0,0,0,2.52,11,36.23,36.23,0,0,0,6,9.93l0,0c.76.6,1.51,1.19,2.3,1.74l.58.42c.22.15.44.33.63.49.39.33.76.66,1.13,1l.56.53.08.08,0,.05s0,0,.18.3c-.12,1.81-2.1.95-1.3,1.13l-.13-.08-.05,0-.06-.05L108,157l-.28-.25-1.12-1c-.73-.68-1.43-1.4-2.12-2.13a43.24,43.24,0,0,1-6.81-9.92,47.79,47.79,0,0,1-4.07-11.35,61.52,61.52,0,0,1-1.5-11.94h0a47,47,0,0,1,1-14.65c.28-1.2.59-2.39.95-3.56a23.58,23.58,0,0,1,1.25-3.47c1.06-2.24,2.64-4.23,3.81-6.32a5.39,5.39,0,0,0,.74-1.64c.15-.59.21-1.24.41-1.82a11.39,11.39,0,0,1,2.07-3,53.8,53.8,0,0,0,4.42-5.66c2.85-3.81,5.91-7.46,8.91-11.15s6-7.38,8.64-11.35a59.08,59.08,0,0,0,6.54-12.6A38.36,38.36,0,0,0,133,31.39a32.24,32.24,0,0,0-3.18-13.45,22.76,22.76,0,0,0-9.07-9.8,28.62,28.62,0,0,0-12.92-3.51c-1.13-.08-2.27,0-3.41,0s-2.28,0-3.42.06a37.65,37.65,0,0,0-6.8,1.08,30.24,30.24,0,0,0-12.32,6.32,23.34,23.34,0,0,0-4.26,5.57,27.23,27.23,0,0,0-2.46,6.59,31.59,31.59,0,0,0-.13,14,27.36,27.36,0,0,0,6.29,12.47,23.67,23.67,0,0,0,5.42,4.48,23.91,23.91,0,0,0,3.14,1.6l.82.33c.3.12.51.22.65.12a.54.54,0,0,0,.24-.51.51.51,0,0,0-.34-.45Zm.15-.42a1.05,1.05,0,0,1,.16,1.88.84.84,0,0,1-.6.07,3.33,3.33,0,0,1-.45-.16l-.84-.33a24.59,24.59,0,0,1-8.77-6.18,27.9,27.9,0,0,1-6.45-12.71,32.17,32.17,0,0,1,.1-14.28,27.82,27.82,0,0,1,2.5-6.75,25.43,25.43,0,0,1,4.34-5.75,31.68,31.68,0,0,1,12.1-8,40.27,40.27,0,0,1,7.12-2c1.22-.21,2.45-.38,3.69-.47a14.34,14.34,0,0,1,1.86,0c.62,0,1.24,0,1.86.1a35.93,35.93,0,0,1,7.33,1.33,26.62,26.62,0,0,1,6.88,3.07,25.16,25.16,0,0,1,9.39,11.41,34.08,34.08,0,0,1,2.51,14.29,42,42,0,0,1-2.88,14.05A59.84,59.84,0,0,1,124.42,58c-2.72,3.91-5.71,7.62-8.75,11.27s-6.09,7.31-8.86,11.18a23.57,23.57,0,0,0-3.55,6.18c-.2.57-.41,1.13-.65,1.66a8.43,8.43,0,0,1-.81,1.56c-.34.48-.83.89-1.21,1.36a4.67,4.67,0,0,0-.77,1.59,41.1,41.1,0,0,0-1.24,7c-.15,1.16-.45,2.27-.66,3.41s-.39,2.27-.6,3.4a130.08,130.08,0,0,0-1.28,13.74h0a62,62,0,0,0,1.27,11.23c.36,1.85.87,3.66,1.38,5.47s1.17,3.58,1.91,5.31a44.93,44.93,0,0,0,5.6,9.8c.58.75,1.17,1.49,1.8,2.2l1,1.05.24.26,0,0h0l-.11-.07c.8.18-1.17-.68-1.28,1.13.13.29.12.2.12.23v0l0-.06-.45-.53c-.31-.36-.63-.72-1-1.05-.16-.17-.31-.32-.48-.47l-.55-.51c-.74-.66-1.43-1.38-2.11-2.1l0,0a37.64,37.64,0,0,1-13.67-20.61,52.87,52.87,0,0,1-1.75-12.63,64.24,64.24,0,0,1,.95-12.59,53.34,53.34,0,0,1,1.44-6.08c.28-1,.68-2,1-3.06s.85-2,1.26-3a70.36,70.36,0,0,1,6.56-10.88c1.21-1.69,2.45-3.34,3.81-4.88s2.75-3,4.12-4.51c2.67-3,5.23-6.1,7.67-9.24a78.35,78.35,0,0,0,6.68-9.64,78.68,78.68,0,0,0,5-10.38,48.32,48.32,0,0,0,2.84-10.76,29.76,29.76,0,0,0,.26-5.35,23.56,23.56,0,0,0-.85-5.14,20.83,20.83,0,0,0-2-4.74,23.34,23.34,0,0,0-3.19-4.18,30.88,30.88,0,0,0-4.05-3.58,25.32,25.32,0,0,0-4.65-2.65,31.56,31.56,0,0,0-5.08-1.65,25.68,25.68,0,0,0-5.34-.59A27.14,27.14,0,0,0,99,6.66c-.45.05-.88.23-1.33.29l-1.38.17a5.81,5.81,0,0,0-2.57,1l0-.09A26.9,26.9,0,0,0,83,14.84a12,12,0,0,0-1.84,2.52,17.2,17.2,0,0,0-1.31,2.85,32.7,32.7,0,0,0-1.63,6.32h0a33.6,33.6,0,0,0-.61,8.57,27.87,27.87,0,0,0,1.83,8.44,22.35,22.35,0,0,0,4.65,7.34,21.62,21.62,0,0,0,7.3,5Z"/><path class="cls-1" d="M108.06,156.43a15.7,15.7,0,0,1-.9-1.69,5.5,5.5,0,0,1-.42-1.89,11,11,0,0,1,.8-3.61,27.59,27.59,0,0,1,3.15-6.19,58.92,58.92,0,0,1,9-10.17c1.66-1.53,3.36-3,5.13-4.42s3.62-2.76,5.53-4a52.26,52.26,0,0,1,12.31-6.12A62.17,62.17,0,0,1,170,116.06a48.5,48.5,0,0,1,13.43,3.73,30.9,30.9,0,0,1,6.19,3.7,18,18,0,0,1,4.92,5.77c.26.61.55,1.2.77,1.82s.34,1.29.48,1.93.11,1.31.15,2a19.2,19.2,0,0,1-.11,1.93,11.78,11.78,0,0,1-.32,1.83l-.37,1.78-.57,1.72-.29.86c-.1.28-.25.55-.38.82a27.82,27.82,0,0,1-9,10.76A50.32,50.32,0,0,1,172.77,161a84.73,84.73,0,0,1-13,3.57,88.35,88.35,0,0,1-26.74.94,79.53,79.53,0,0,1-13.1-2.75c-2.08-.64-4.26-1.11-6.4-1.95a13.79,13.79,0,0,1-3.09-1.64A7.57,7.57,0,0,1,108.06,156.43Zm1.27-.63a8.33,8.33,0,0,0,4.73,3.61c2,.76,4.15,1.2,6.3,1.83a77.82,77.82,0,0,0,12.86,2.46,75,75,0,0,0,26-1.68c8.41-2.12,16.7-5.31,23.51-10.27a22.82,22.82,0,0,0,7.9-9.26c.1-.23.23-.45.3-.69l.22-.72.43-1.43c.08-.49.13-1,.18-1.49a6,6,0,0,0,.07-1.46,10,10,0,0,0-1.55-5.12c-1.86-3.07-5.23-5.47-8.95-7.17a43.42,43.42,0,0,0-12-3.31,56.09,56.09,0,0,0-25.06,2.13,71.65,71.65,0,0,0-11.82,4.72,55.53,55.53,0,0,0-10.66,7.26,50.12,50.12,0,0,0-8.81,9.38,25,25,0,0,0-3,5.53,8.23,8.23,0,0,0-.44,1.43c-.08.47-.11.94-.17,1.4A6.48,6.48,0,0,0,109.33,155.8Z"/><path class="cls-1" d="M106.73,155.54l.06-.23s0,0,0,.15a.83.83,0,0,0,.14.43.87.87,0,0,0,.17.2l0,0-.14-.11c-.18-.15-.35-.31-.52-.47a11.46,11.46,0,0,1-.91-1l-.77-1a5.46,5.46,0,0,0-.77-.78c-1.22-1.12-2.44-2.22-3.7-3.29s-2.54-2.1-3.84-3.1-2.66-1.92-4-2.82a46.89,46.89,0,0,0-17.72-7.08,58.91,58.91,0,0,0-18.73.09,54,54,0,0,0-9.08,2.27,52.12,52.12,0,0,0-8.54,3.75,37.62,37.62,0,0,0-5.52,3.75,16.41,16.41,0,0,0-4,4.59,8,8,0,0,0-1,5.09A10.73,10.73,0,0,0,30.4,161a26.89,26.89,0,0,0,4.91,4.47A37.3,37.3,0,0,0,41.2,169a40.62,40.62,0,0,0,13.33,3.73,45.23,45.23,0,0,0,7,.2c2.4-.12,4.84-.3,7.24-.54A76.68,76.68,0,0,0,83,169.87a55.24,55.24,0,0,0,13-5.74,57,57,0,0,0,5.86-4.08l1.42-1.16,1.43-1.13a13.93,13.93,0,0,0,1.26-1.14A3.37,3.37,0,0,0,106.73,155.54Zm1.88.39a4.92,4.92,0,0,1-1.08,2,15.89,15.89,0,0,1-1.35,1.44l-1.36,1.26L103.49,162a44.41,44.41,0,0,1-5.94,4.65,52.73,52.73,0,0,1-13.73,6.16,101.73,101.73,0,0,1-14.6,3.2c-2.46.36-4.9.66-7.38.91a49.33,49.33,0,0,1-7.66.16,45.74,45.74,0,0,1-15-3.43,42.5,42.5,0,0,1-6.9-3.67,32.35,32.35,0,0,1-6.18-5.1,16.65,16.65,0,0,1-4.21-7.76,13.45,13.45,0,0,1-.16-4.72,15,15,0,0,1,1.41-4.43,22.76,22.76,0,0,1,5.32-6.69A38.08,38.08,0,0,1,35,136.61a58.53,58.53,0,0,1,9.67-4.36,58,58,0,0,1,10.29-2.45,48.92,48.92,0,0,1,20.93,1.51c6.82,2,12.78,5.77,18.16,9.86,1.34,1,2.66,2.1,3.94,3.2s2.56,2.2,3.79,3.34,2.45,2.29,3.65,3.47a7.83,7.83,0,0,1,.94,1l.74,1a9.47,9.47,0,0,0,.73.86c.13.13.26.26.39.38l.1.09,0,0a1.14,1.14,0,0,1,.23.25,1.11,1.11,0,0,1,.18.58,1.33,1.33,0,0,1-.07.46C108.62,155.93,108.61,156,108.62,155.93Z"/></g></g></svg>